# xmcd CD database file
#
# Track frame offsets:
#	150
#	14806
#	128855
#	166695
#
# Disc length: 3351 seconds
#
# Revision: 4
# Processed by: cddbd v1.4PL0 Copyright (c) Steve Scherf et al.
# Submitted via: CDex 1.50beta10
#
DISCID=2c0d1504
DTITLE=Stevie Ray Vaughan - Live At Legends Feat. Buddy Guy 30/07/1989
DYEAR=1989
DGENRE=Blues
TTITLE0=Still Call The Blues
TTITLE1=Louisiana Blues/Throw Your Love On Me So Strong
TTITLE2=Mary Had A Little Lamb
TTITLE3=Leave My Girl Alone
EXTD=YEAR: 1989
EXTT0=
EXTT1=
EXTT2=
EXTT3=
PLAYORDER=
